<svg xmlns="http://www.w3.org/2000/svg" xmlns:xlink="http://www.w3.org/1999/xlink" version="1.1" x="0px" y="0px" viewBox="0 0 32 40" enable-background="new 0 0 32 32" xml:space="preserve"><g><path d="M16,3C8.832,3,3,8.832,3,16s5.832,13,13,13c7.168,0,13-5.832,13-13S23.168,3,16,3z M21.707,21.707   C21.512,21.902,21.256,22,21,22s-0.512-0.098-0.707-0.293l-5-5C15.105,16.52,15,16.266,15,16V8c0-0.553,0.448-1,1-1s1,0.447,1,1   v7.586l4.707,4.707C22.098,20.684,22.098,21.316,21.707,21.707z"/></g><text x="0" y="47" fill="#000000" font-size="5px" font-weight="bold" font-family="'Helvetica Neue', Helvetica, Arial-Unicode, Arial, Sans-serif">Created by mim studio</text><text x="0" y="52" fill="#000000" font-size="5px" font-weight="bold" font-family="'Helvetica Neue', Helvetica, Arial-Unicode, Arial, Sans-serif">from the Noun Project</text></svg>