<svg xmlns:sodipodi="http://sodipodi.sourceforge.net/DTD/sodipodi-0.dtd" xmlns:inkscape="http://www.inkscape.org/namespaces/inkscape" xmlns:cc="http://creativecommons.org/ns#" xmlns:rdf="http://www.w3.org/1999/02/22-rdf-syntax-ns#" xmlns:svg="http://www.w3.org/2000/svg" xmlns:dc="http://purl.org/dc/elements/1.1/" xmlns="http://www.w3.org/2000/svg" xmlns:xlink="http://www.w3.org/1999/xlink" version="1.1" x="0px" y="0px" viewBox="0 0 800 1000" enable-background="new 0 0 800 800" xml:space="preserve"><g><path d="M462.49,167.443c2.454,2.561,5.736,3.849,9.023,3.849c3.111,0,6.227-1.154,8.649-3.479   c4.983-4.777,5.148-12.69,0.37-17.673c-3.406-3.553-6.882-7.142-10.625-10.974c-4.823-4.938-12.74-5.028-17.677-0.206   c-4.938,4.825-5.03,12.739-0.206,17.677C455.715,160.414,459.138,163.948,462.49,167.443z"/><path d="M641.604,455.212c0-48.479-14.284-99.277-42.455-150.98c-21.802-40.013-52.067-81.26-92.526-126.094   c-4.626-5.126-12.531-5.533-17.654-0.906c-5.126,4.625-5.531,12.529-0.906,17.654c87.697,97.182,128.542,179.901,128.542,260.326   c0,55.602-21.652,107.875-60.969,147.19c-39.315,39.316-91.589,60.969-147.19,60.969s-107.875-21.652-147.192-60.969   c-39.315-39.315-60.968-91.589-60.968-147.19c0-135.863,121.079-255.87,201.199-335.282c5.489-5.439,10.773-10.678,15.8-15.704   c4.882-4.882,4.882-12.796,0-17.678c-4.883-4.881-12.797-4.881-17.678,0c-5.002,5.002-10.26,10.213-15.721,15.626   c-41.089,40.726-92.225,91.409-134.031,150.752c-50.178,71.225-74.569,137.394-74.569,202.286   c0,62.279,24.253,120.831,68.29,164.868c44.039,44.038,102.591,68.291,164.87,68.291s120.831-24.253,164.868-68.291   C617.352,576.043,641.604,517.491,641.604,455.212z"/><path d="M756.605,142.371h-15.423c-6.903,0-12.5,5.598-12.5,12.5c0,6.903,5.597,12.5,12.5,12.5h15.423   c6.903,0,12.5-5.597,12.5-12.5C769.105,147.969,763.509,142.371,756.605,142.371z"/><path d="M610.724,167.371h92.566c6.903,0,12.5-5.597,12.5-12.5c0-6.902-5.597-12.5-12.5-12.5h-92.566   c-6.903,0-12.5,5.598-12.5,12.5C598.224,161.774,603.82,167.371,610.724,167.371z"/><path d="M97.902,676.68H82.48c-6.903,0-12.5,5.597-12.5,12.5s5.597,12.5,12.5,12.5h15.422c6.903,0,12.5-5.597,12.5-12.5   S104.806,676.68,97.902,676.68z"/><path d="M228.361,676.68h-92.565c-6.903,0-12.5,5.597-12.5,12.5s5.597,12.5,12.5,12.5h92.565c6.903,0,12.5-5.597,12.5-12.5   S235.265,676.68,228.361,676.68z"/><path d="M659.775,407.087c-2.33,2.319-3.66,5.54-3.66,8.829c0,3.301,1.33,6.521,3.66,8.841c2.33,2.33,5.55,3.659,8.84,3.659   s6.51-1.329,8.83-3.659c2.33-2.32,3.67-5.54,3.67-8.841c0-3.289-1.34-6.51-3.67-8.829c-2.32-2.33-5.54-3.671-8.83-3.671   S662.105,404.757,659.775,407.087z"/><path d="M745.141,403.422H701.63c-6.903,0-12.5,5.597-12.5,12.5s5.597,12.5,12.5,12.5h43.511c6.903,0,12.5-5.597,12.5-12.5   S752.044,403.422,745.141,403.422z"/><path d="M670.612,692.112H562.23c-6.903,0-12.5,5.597-12.5,12.5s5.597,12.5,12.5,12.5h108.382c6.903,0,12.5-5.597,12.5-12.5   S677.516,692.112,670.612,692.112z"/><path d="M151.473,285.396c0-6.903-5.597-12.5-12.5-12.5H43.395c-6.903,0-12.5,5.597-12.5,12.5s5.597,12.5,12.5,12.5h95.578   C145.876,297.896,151.473,292.299,151.473,285.396z"/><path d="M103.979,153.551h102.885c6.903,0,12.5-5.597,12.5-12.5s-5.597-12.5-12.5-12.5H103.979c-6.903,0-12.5,5.597-12.5,12.5   S97.075,153.551,103.979,153.551z"/><path d="M449.217,595.792c1.846,5.079,6.642,8.234,11.75,8.234c1.417,0,2.858-0.242,4.268-0.754   c31.774-11.545,58.985-32.258,78.693-59.899c20.151-28.265,30.803-61.61,30.803-96.432c0-6.903-5.597-12.5-12.5-12.5   s-12.5,5.597-12.5,12.5c0,59.234-37.388,112.615-93.033,132.833C450.209,582.132,446.859,589.304,449.217,595.792z"/><path d="M395.945,600.726c0,6.903,5.597,12.5,12.5,12.5c4.924,0,9.897-0.219,14.78-0.648c6.877-0.606,11.96-6.673,11.354-13.55   c-0.607-6.878-6.684-11.945-13.55-11.354c-4.156,0.367-8.391,0.553-12.585,0.553C401.542,588.226,395.945,593.822,395.945,600.726z   "/></g><text x="0" y="815" fill="#000000" font-size="5px" font-weight="bold" font-family="'Helvetica Neue', Helvetica, Arial-Unicode, Arial, Sans-serif">Created by abderraouf omara</text><text x="0" y="820" fill="#000000" font-size="5px" font-weight="bold" font-family="'Helvetica Neue', Helvetica, Arial-Unicode, Arial, Sans-serif">from the Noun Project</text></svg>