<svg xmlns="http://www.w3.org/2000/svg" xmlns:xlink="http://www.w3.org/1999/xlink" xml:space="preserve" version="1.1" style="shape-rendering:geometricPrecision;text-rendering:geometricPrecision;image-rendering:optimizeQuality;" viewBox="0 0 847 1058.75" x="0px" y="0px" fill-rule="evenodd" clip-rule="evenodd"><defs><style type="text/css">
   
    .fil0 {fill:black}
   
  </style></defs><g><path class="fil0" d="M445 714c211,9 180,109 -22,109 -202,0 -232,-100 -21,-109 7,13 14,27 21,41 7,-14 15,-28 22,-41zm-22 -691c124,0 224,101 224,224 0,110 -167,381 -224,491 -56,-110 -224,-381 -224,-491 0,-123 101,-224 224,-224zm0 71c85,0 153,69 153,153 0,85 -68,154 -153,154 -84,0 -153,-69 -153,-154 0,-84 69,-153 153,-153z"/></g><text x="0" y="862" fill="#000000" font-size="5px" font-weight="bold" font-family="'Helvetica Neue', Helvetica, Arial-Unicode, Arial, Sans-serif">Created by Qomariyah</text><text x="0" y="867" fill="#000000" font-size="5px" font-weight="bold" font-family="'Helvetica Neue', Helvetica, Arial-Unicode, Arial, Sans-serif">from the Noun Project</text></svg>