<svg xmlns="http://www.w3.org/2000/svg" viewBox="0 0 24 30" x="0px" y="0px"><title>weather, thermometer, temperature, sick, hot, medical</title><path d="M14,19a2.993,2.993,0,0,0,1-5.816V5a1,1,0,0,0-2,0v8.184A2.993,2.993,0,0,0,14,19Z"/><path d="M10,10.261a6.986,6.986,0,0,0-2.913,6.854,7.067,7.067,0,0,0,6.071,5.835,7.177,7.177,0,0,0,.826.049A7,7,0,0,0,18,10.262V5a4,4,0,0,0-8,0Zm1.5,1.414a1,1,0,0,0,.5-.865V5a2,2,0,0,1,4,0v5.81a1,1,0,0,0,.5.865,4.994,4.994,0,0,1,.822,8.062,4.949,4.949,0,0,1-3.93,1.227,5,5,0,0,1-1.89-9.289Z"/><path d="M4,5H8A1,1,0,0,0,8,3H4A1,1,0,0,0,4,5Z"/><path d="M9,8A1,1,0,0,0,8,7H6A1,1,0,0,0,6,9H8A1,1,0,0,0,9,8Z"/><text x="0" y="39" fill="#000000" font-size="5px" font-weight="bold" font-family="'Helvetica Neue', Helvetica, Arial-Unicode, Arial, Sans-serif">Created by Royyan Wijaya</text><text x="0" y="44" fill="#000000" font-size="5px" font-weight="bold" font-family="'Helvetica Neue', Helvetica, Arial-Unicode, Arial, Sans-serif">from the Noun Project</text></svg>