<svg xmlns="http://www.w3.org/2000/svg" xmlns:xlink="http://www.w3.org/1999/xlink" xml:space="preserve" style="shape-rendering:geometricPrecision;text-rendering:geometricPrecision;image-rendering:optimizeQuality;" viewBox="0 0 0.217205 0.39650875" x="0px" y="0px" fill-rule="evenodd" clip-rule="evenodd"><defs><style type="text/css">
   
    .fil0 {fill:black}
   
  </style></defs><g><path class="fil0" d="M0.0641996 0.0606249l0.0380387 0.0380426c0.00183461,-0.00117321 0.00402355,-0.00186217 0.00636209,-0.00186217 0.00234248,0 0.00452748,0.000688964 0.00636209,0.00186217l0.0380426 -0.0380466 -0.00936597 -0.00936597 0.0512589 -0.051255 0.0223067 0.0223067 -0.051255 0.0512589 -0.00936991 -0.00936597 -0.0380426 0.0380426c0.00117714,0.00183461 0.00186217,0.00401961 0.00186217,0.00636209 0,0.00234248 -0.000685027,0.00452748 -0.00186217,0.00636209l0.0380426 0.0380387 0.00936597 -0.00936597 0.0512589 0.0512589 -0.0223067 0.0223067 -0.0512589 -0.051255 0.00936204 -0.00936991 -0.0380387 -0.0380387c-0.00183461,0.00117714 -0.00401568,0.00186217 -0.00636209,0.00186217 -0.00233854,0 -0.00452748,-0.000688964 -0.00636209,-0.00186217l-0.0380387 0.0380387 0.00936597 0.00936597 -0.051255 0.0512589 -0.0223067 -0.0223067 0.051255 -0.0512589 0.00936597 0.00936204 0.0380426 -0.0380347c-0.00118108,-0.00183461 -0.00186611,-0.00401568 -0.00186611,-0.00636209 0,-0.00234248 0.000685027,-0.00452748 0.00186611,-0.00636209l-0.0380466 -0.0380426 -0.00936597 0.00936597 -0.051255 -0.051255 0.0223067 -0.0223067 0.0512589 0.051255 -0.00936597 0.00936597z"/><path class="fil0" d="M0.0399127 0.235448l0.137387 0 0 0.0615304c0,0.0111258 -0.0091022,0.020228 -0.020228,0.020228l-0.0326923 0c0,-0.0144171 0,-0.0288341 0,-0.0432512 0,-0.0042952 -0.00350781,-0.00780301 -0.00780301,-0.00780301l-0.0159446 0c-0.0042952,0 -0.00780301,0.00350781 -0.00780301,0.00780301 0,0.0144171 0,0.0288341 0,0.0432512l-0.0326884 0c-0.0111258,0 -0.020228,-0.0091022 -0.020228,-0.020228l0 -0.0615304z"/><path class="fil0" d="M0.131238 0.143588l0.00951164 0.0164761 -0.00588178 0.00588572 0.0219563 0.0219602 0.0257436 0.0445858 -0.0739632 0 -0.0739672 0 0.0257515 -0.0446055 0.0219484 -0.0219445 -0.00588178 -0.00588178 0.00952345 -0.0164918 0.0176611 -0.0176611c0.00160233,0.000460622 0.00327159,0.000696838 0.00496054,0.000696838 0.00168895,0 0.00335821,-0.000236216 0.00496054,-0.000696838l0.0176768 0.0176768z"/></g><text x="0" y="15.317207" fill="#000000" font-size="5px" font-weight="bold" font-family="'Helvetica Neue', Helvetica, Arial-Unicode, Arial, Sans-serif">Created by mc andi</text><text x="0" y="20.317207" fill="#000000" font-size="5px" font-weight="bold" font-family="'Helvetica Neue', Helvetica, Arial-Unicode, Arial, Sans-serif">from the Noun Project</text></svg>